<?xml version="1.0" standalone="no"?>
<!DOCTYPE svg PUBLIC "-//W3C//DTD SVG 20010904//EN"
 "http://www.w3.org/TR/2001/REC-SVG-20010904/DTD/svg10.dtd">
<svg version="1.0" xmlns="http://www.w3.org/2000/svg"
 width="75.000000pt" height="86.000000pt" viewBox="0 0 75.000000 86.000000"
 preserveAspectRatio="xMidYMid meet">

<g transform="translate(0.000000,86.000000) scale(0.100000,-0.100000)"
fill="#e11d48" stroke="none">
<path d="M25 805 c-25 -24 -25 -25 -25 -232 0 -214 8 -271 45 -343 81 -157
267 -235 440 -185 114 34 216 138 249 256 10 36 16 96 16 172 0 134 -11 157
-73 157 -51 0 -67 -24 -67 -102 0 -75 -14 -124 -40 -138 -32 -17 -75 -11 -98
13 -20 21 -22 34 -22 154 0 117 -2 133 -21 157 -26 33 -77 36 -105 5 -17 -19
-19 -41 -22 -194 -3 -158 -5 -175 -23 -191 -26 -23 -84 -23 -107 -1 -15 15
-18 46 -22 238 -5 217 -5 221 -29 240 -32 26 -67 24 -96 -6z"/>
</g>
</svg>
